<mxfile host="app.diagrams.net" agent="Mozilla/5.0 (Windows NT 10.0; Win64; x64) AppleWebKit/537.36 (KHTML, like Gecko) Chrome/130.0.0.0 Safari/537.36" version="24.8.3">
  <diagram name="페이지-1" id="xXJwm1Dfrkg78KuLhz8X">
    <mxGraphModel dx="1619" dy="764" grid="1" gridSize="10" guides="1" tooltips="1" connect="1" arrows="1" fold="1" page="1" pageScale="1" pageWidth="827" pageHeight="1169" math="0" shadow="0">
      <root>
        <mxCell id="0" />
        <mxCell id="1" parent="0" />
        <mxCell id="8Cbe-4Ls-i42AWIjepYP-20" style="edgeStyle=orthogonalEdgeStyle;rounded=0;orthogonalLoop=1;jettySize=auto;html=1;exitX=0.5;exitY=1;exitDx=0;exitDy=0;entryX=0.5;entryY=0;entryDx=0;entryDy=0;" edge="1" parent="1" source="8Cbe-4Ls-i42AWIjepYP-1" target="8Cbe-4Ls-i42AWIjepYP-3">
          <mxGeometry relative="1" as="geometry" />
        </mxCell>
        <mxCell id="8Cbe-4Ls-i42AWIjepYP-21" style="edgeStyle=orthogonalEdgeStyle;rounded=0;orthogonalLoop=1;jettySize=auto;html=1;exitX=0.5;exitY=1;exitDx=0;exitDy=0;entryX=0.5;entryY=0;entryDx=0;entryDy=0;" edge="1" parent="1" source="8Cbe-4Ls-i42AWIjepYP-1" target="8Cbe-4Ls-i42AWIjepYP-2">
          <mxGeometry relative="1" as="geometry" />
        </mxCell>
        <mxCell id="8Cbe-4Ls-i42AWIjepYP-1" value="&lt;font style=&quot;font-size: 17px;&quot;&gt;타이틀 화면&lt;/font&gt;" style="rounded=1;whiteSpace=wrap;html=1;strokeWidth=2;" vertex="1" parent="1">
          <mxGeometry x="-560" y="90" width="150" height="60" as="geometry" />
        </mxCell>
        <mxCell id="8Cbe-4Ls-i42AWIjepYP-23" style="edgeStyle=orthogonalEdgeStyle;rounded=0;orthogonalLoop=1;jettySize=auto;html=1;exitX=1;exitY=0.25;exitDx=0;exitDy=0;entryX=0;entryY=0.25;entryDx=0;entryDy=0;" edge="1" parent="1" source="8Cbe-4Ls-i42AWIjepYP-2" target="8Cbe-4Ls-i42AWIjepYP-3">
          <mxGeometry relative="1" as="geometry" />
        </mxCell>
        <mxCell id="8Cbe-4Ls-i42AWIjepYP-2" value="&lt;font style=&quot;font-size: 17px;&quot;&gt;생산 및 업그레이드 화면&lt;/font&gt;" style="rounded=0;whiteSpace=wrap;html=1;strokeWidth=2;" vertex="1" parent="1">
          <mxGeometry x="-760" y="230" width="200" height="60" as="geometry" />
        </mxCell>
        <mxCell id="8Cbe-4Ls-i42AWIjepYP-22" style="edgeStyle=orthogonalEdgeStyle;rounded=0;orthogonalLoop=1;jettySize=auto;html=1;exitX=0.5;exitY=1;exitDx=0;exitDy=0;entryX=0.5;entryY=0;entryDx=0;entryDy=0;" edge="1" parent="1" source="8Cbe-4Ls-i42AWIjepYP-3" target="8Cbe-4Ls-i42AWIjepYP-4">
          <mxGeometry relative="1" as="geometry" />
        </mxCell>
        <mxCell id="8Cbe-4Ls-i42AWIjepYP-24" style="edgeStyle=orthogonalEdgeStyle;rounded=0;orthogonalLoop=1;jettySize=auto;html=1;exitX=0;exitY=0.75;exitDx=0;exitDy=0;entryX=1;entryY=0.75;entryDx=0;entryDy=0;" edge="1" parent="1" source="8Cbe-4Ls-i42AWIjepYP-3" target="8Cbe-4Ls-i42AWIjepYP-2">
          <mxGeometry relative="1" as="geometry">
            <mxPoint x="-550" y="275" as="targetPoint" />
          </mxGeometry>
        </mxCell>
        <mxCell id="8Cbe-4Ls-i42AWIjepYP-3" value="&lt;font style=&quot;font-size: 17px;&quot;&gt;메인 전투 화면&lt;/font&gt;" style="rounded=0;whiteSpace=wrap;html=1;strokeWidth=2;" vertex="1" parent="1">
          <mxGeometry x="-400" y="230" width="200" height="60" as="geometry" />
        </mxCell>
        <mxCell id="8Cbe-4Ls-i42AWIjepYP-25" style="edgeStyle=orthogonalEdgeStyle;rounded=0;orthogonalLoop=1;jettySize=auto;html=1;exitX=1;exitY=0.5;exitDx=0;exitDy=0;entryX=0;entryY=0.5;entryDx=0;entryDy=0;" edge="1" parent="1" source="8Cbe-4Ls-i42AWIjepYP-4" target="8Cbe-4Ls-i42AWIjepYP-6">
          <mxGeometry relative="1" as="geometry" />
        </mxCell>
        <mxCell id="8Cbe-4Ls-i42AWIjepYP-4" value="&lt;font style=&quot;font-size: 17px;&quot;&gt;결과 표시 화면&lt;/font&gt;" style="rounded=0;whiteSpace=wrap;html=1;strokeWidth=2;" vertex="1" parent="1">
          <mxGeometry x="-400" y="360" width="200" height="60" as="geometry" />
        </mxCell>
        <mxCell id="8Cbe-4Ls-i42AWIjepYP-6" value="&lt;font style=&quot;font-size: 17px;&quot;&gt;게임 종료&lt;/font&gt;" style="rounded=1;whiteSpace=wrap;html=1;strokeWidth=2;" vertex="1" parent="1">
          <mxGeometry x="-120" y="360" width="150" height="60" as="geometry" />
        </mxCell>
        <mxCell id="8Cbe-4Ls-i42AWIjepYP-12" style="edgeStyle=orthogonalEdgeStyle;rounded=0;orthogonalLoop=1;jettySize=auto;html=1;exitX=0.5;exitY=1;exitDx=0;exitDy=0;" edge="1" parent="1" source="8Cbe-4Ls-i42AWIjepYP-4" target="8Cbe-4Ls-i42AWIjepYP-4">
          <mxGeometry relative="1" as="geometry" />
        </mxCell>
      </root>
    </mxGraphModel>
  </diagram>
</mxfile>
